<svg id="ebZe2qKjJ7R1" xmlns="http://www.w3.org/2000/svg" xmlns:xlink="http://www.w3.org/1999/xlink" viewBox="0 0 300 300" shape-rendering="geometricPrecision" text-rendering="geometricPrecision" project-id="11bbe62155624be69477788cd9d773c0" export-id="36f2c2a55b524bfc824f9be0ca2e84d7" cached="false"><line x1="0" y1="-69.979716" x2="0" y2="69.979716" transform="translate(99.79716 159.229209)" fill="none" stroke="#fff" stroke-width="4"/><line x1="-25.10142" y1="13.184584" x2="25.10142" y2="-13.184584" transform="matrix(.995318 0.096659-.096659 0.995316 125.328889 218.38888)" fill="none" stroke="#fff" stroke-width="4"/><line x1="-21.805274" y1="-10.141988" x2="21.805274" y2="10.141988" transform="matrix(1.151163 0 0 1.231707 124.89858 101.741511)" fill="none" stroke="#fff" stroke-width="4"/><line x1="-34.102434" y1="0" x2="34.102434" y2="0" transform="translate(159.001014 154.158215)" fill="none" stroke="#fff" stroke-width="4"/><line x1="10.649087" y1="9.127789" x2="-10.649087" y2="-9.127789" transform="translate(182.454361 145.030426)" fill="none" stroke="#fff" stroke-width="4"/><line x1="8.11359" y1="-9.127789" x2="-8.11359" y2="9.127789" transform="translate(184.989858 163.286004)" fill="none" stroke="#fff" stroke-width="4"/><line x1="0" y1="19.776876" x2="0" y2="-19.776877" transform="matrix(-1 0 0 1.000001 150 187.915444)" fill="none" stroke="#fff" stroke-width="4"/><line x1="0" y1="-13.691683" x2="0" y2="13.691683" transform="translate(150 127.925152)" fill="none" stroke="#fff" stroke-width="4"/></svg>
