<svg id="e9yLzrlNaAE1" xmlns="http://www.w3.org/2000/svg" xmlns:xlink="http://www.w3.org/1999/xlink" viewBox="0 0 300 300" shape-rendering="geometricPrecision" text-rendering="geometricPrecision" project-id="c2c4385cc1104490ba188c9478b692aa" export-id="7a5212b6765c4b18aa917b568bae65fc" cached="false"><line x1="0" y1="-69.979716" x2="0" y2="69.979716" transform="translate(99.7972 159.229)" fill="none" stroke="#fff" stroke-width="10" stroke-linecap="round"/><line x1="-25.10142" y1="13.184584" x2="25.10142" y2="-13.184584" transform="matrix(.932671 0.090575-.095538 0.983777 125.329 218.389)" fill="none" stroke="#fff" stroke-width="10"/><line x1="-21.805274" y1="-10.141988" x2="21.805274" y2="10.141988" transform="matrix(1.15116 0 0 1.23171 124.899 101.742)" fill="none" stroke="#fff" stroke-width="10"/><line x1="-34.102434" y1="0" x2="34.102434" y2="0" transform="translate(159.431434 154.158)" fill="none" stroke="#fff" stroke-width="10" stroke-linecap="round"/><line x1="10.649087" y1="9.127789" x2="-10.649087" y2="-9.127789" transform="translate(182.454 145.03)" fill="none" stroke="#fff" stroke-width="10" stroke-linecap="round"/><line x1="8.11359" y1="-9.127789" x2="-8.11359" y2="9.127789" transform="translate(184.99 163.286)" fill="none" stroke="#fff" stroke-width="10" stroke-linecap="round"/><line x1="0" y1="19.776876" x2="0" y2="-19.776877" transform="matrix(-1 0 0 1 150 187.915)" fill="none" stroke="#fff" stroke-width="10" stroke-linecap="round"/><line x1="0" y1="-13.691683" x2="0" y2="13.691683" transform="matrix(-1 0 0 1.066831 150 127.925)" fill="none" stroke="#fff" stroke-width="10" stroke-linecap="round"/></svg>
